<?xml version="1.0" encoding="UTF-8" standalone="no"?>
<!DOCTYPE svg PUBLIC "-//W3C//DTD SVG 1.1//EN" "http://www.w3.org/Graphics/SVG/1.1/DTD/svg11.dtd">
<svg width="100%" height="100%" viewBox="0 0 215 91" version="1.1" xmlns="http://www.w3.org/2000/svg" xmlns:xlink="http://www.w3.org/1999/xlink" xml:space="preserve" xmlns:serif="http://www.serif.com/" style="fill-rule:evenodd;clip-rule:evenodd;stroke-linejoin:round;stroke-miterlimit:2;">
    <g transform="matrix(1,0,0,1,-504.513,-63.349)">
        <g transform="matrix(1,0,0,1,252.725,0)">
            <g transform="matrix(4.81482,0,0,4.81482,-803.074,-451.002)">
                <path d="M224.007,108.567C223.839,108.231 223.611,107.955 223.395,107.763C223.143,107.547 222.651,107.223 221.787,107.223C220.287,107.223 219.447,108.255 219.447,109.335C219.447,110.535 220.419,111.087 221.079,111.363L221.847,111.687C222.375,111.903 222.999,112.239 222.999,113.055C222.999,113.859 222.423,114.399 221.679,114.399C221.199,114.399 220.863,114.207 220.635,113.919C220.443,113.667 220.299,113.295 220.299,112.899L219.087,113.163C219.135,113.715 219.327,114.243 219.759,114.723C220.167,115.179 220.719,115.527 221.643,115.527C223.143,115.527 224.223,114.483 224.223,112.959C224.223,112.047 223.815,111.207 222.339,110.607L221.535,110.283C220.755,109.971 220.671,109.551 220.671,109.311C220.671,108.795 221.055,108.351 221.799,108.351C222.147,108.351 222.411,108.435 222.663,108.639C222.843,108.795 222.951,108.963 223.023,109.143L224.007,108.567Z" style="fill:rgb(222,227,232);fill-rule:nonzero;"/>
            </g>
            <g transform="matrix(4.81482,0,0,4.81482,-802.074,-451.002)">
                <path d="M229.659,107.223C227.259,107.223 225.495,109.023 225.495,111.375C225.495,113.727 227.259,115.527 229.659,115.527C232.059,115.527 233.823,113.727 233.823,111.375C233.823,109.023 232.059,107.223 229.659,107.223ZM229.659,114.399C227.943,114.399 226.719,113.151 226.719,111.375C226.719,109.599 227.943,108.351 229.659,108.351C231.375,108.351 232.599,109.599 232.599,111.375C232.599,113.151 231.375,114.399 229.659,114.399Z" style="fill:rgb(1,43,85);fill-rule:nonzero;"/>
            </g>
            <g transform="matrix(4.81482,0,0,4.81482,-803.074,-451.002)">
                <path d="M236.703,115.371L236.703,109.779L242.511,115.863L242.511,107.367L241.287,107.367L241.287,112.911L235.479,106.827L235.479,115.371L236.703,115.371Z" style="fill:rgb(222,227,232);fill-rule:nonzero;"/>
            </g>
            <g transform="matrix(4.81482,0,0,4.81482,-803.074,-451.002)">
                <path d="M244.551,107.367L244.551,115.371L246.207,115.371C247.323,115.371 248.199,115.263 249.135,114.603C250.191,113.859 250.743,112.707 250.743,111.375C250.743,110.043 250.179,108.879 249.207,108.147C248.319,107.487 247.347,107.367 246.231,107.367L244.551,107.367ZM245.775,108.519L246.303,108.519C246.891,108.519 247.743,108.567 248.439,109.071C249.015,109.491 249.519,110.319 249.519,111.375C249.519,112.467 248.979,113.235 248.427,113.655C247.731,114.171 246.903,114.219 246.303,114.219L245.775,114.219L245.775,108.519Z" style="fill:rgb(222,227,232);fill-rule:nonzero;"/>
            </g>
            <g transform="matrix(4.81482,0,0,4.81482,-803.074,-451.002)">
                <path d="M256.815,107.367L252.399,107.367L252.399,115.371L256.815,115.371L256.815,114.219L253.623,114.219L253.623,111.699L256.719,111.699L256.719,110.547L253.623,110.547L253.623,108.519L256.815,108.519L256.815,107.367Z" style="fill:rgb(1,43,85);fill-rule:nonzero;"/>
            </g>
            <g transform="matrix(4.81482,0,0,4.81482,-803.074,-451.002)">
                <path d="M258.519,107.367L258.519,115.371L259.743,115.371L259.743,112.095L259.959,112.095L262.251,115.371L263.727,115.371L261.231,111.951C262.299,111.711 263.007,110.871 263.007,109.719C263.007,109.371 262.935,108.423 262.059,107.835C261.543,107.487 260.919,107.367 259.947,107.367L258.519,107.367ZM259.743,108.495L260.163,108.495C260.763,108.495 261.831,108.603 261.831,109.731C261.831,111.003 260.463,111.039 260.127,111.039L259.743,111.039L259.743,108.495Z" style="fill:rgb(222,227,232);fill-rule:nonzero;"/>
            </g>
            <g transform="matrix(4.81482,0,0,4.81482,-803.074,-460.002)">
                <path d="M223.707,124.335L225.699,124.335C225.651,124.791 225.471,125.259 225.027,125.691C224.511,126.195 223.935,126.399 223.239,126.399C222.471,126.399 221.787,126.183 221.235,125.595C220.707,125.031 220.407,124.227 220.407,123.423C220.407,122.559 220.731,121.707 221.259,121.179C221.655,120.783 222.327,120.351 223.371,120.351C223.863,120.351 224.343,120.435 224.787,120.699C225.171,120.915 225.531,121.275 225.771,121.611L226.743,120.927C226.515,120.567 226.107,120.099 225.447,119.727C224.823,119.379 224.079,119.223 223.359,119.223C222.123,119.223 221.031,119.727 220.347,120.423C219.687,121.083 219.183,122.163 219.183,123.411C219.183,124.563 219.591,125.631 220.371,126.435C221.103,127.191 221.931,127.527 223.095,127.527C224.007,127.527 224.991,127.311 225.819,126.507C226.599,125.751 227.007,124.635 227.007,123.267L227.007,123.207L223.707,123.207L223.707,124.335Z" style="fill:rgb(222,227,232);fill-rule:nonzero;"/>
            </g>
            <g transform="matrix(4.81482,0,0,4.81482,-803.074,-460.002)">
                <path d="M233.079,119.367L228.663,119.367L228.663,127.371L233.079,127.371L233.079,126.219L229.887,126.219L229.887,123.699L232.983,123.699L232.983,122.547L229.887,122.547L229.887,120.519L233.079,120.519L233.079,119.367Z" style="fill:rgb(1,43,85);fill-rule:nonzero;"/>
            </g>
            <g transform="matrix(4.81482,0,0,4.81482,-799.723,-460.002)">
                <path d="M234.783,119.367L234.783,127.371L238.359,127.371L238.359,126.219L236.007,126.219L236.007,119.367L234.783,119.367Z" style="fill:rgb(222,227,232);fill-rule:nonzero;"/>
            </g>
            <g transform="matrix(4.81482,0,0,4.81482,-795.074,-460.002)">
                <path d="M239.631,119.367L239.631,127.371L241.287,127.371C242.403,127.371 243.279,127.263 244.215,126.603C245.271,125.859 245.823,124.707 245.823,123.375C245.823,122.043 245.259,120.879 244.287,120.147C243.399,119.487 242.427,119.367 241.311,119.367L239.631,119.367ZM240.855,120.519L241.383,120.519C241.971,120.519 242.823,120.567 243.519,121.071C244.095,121.491 244.599,122.319 244.599,123.375C244.599,124.467 244.059,125.235 243.507,125.655C242.811,126.171 241.983,126.219 241.383,126.219L240.855,126.219L240.855,120.519Z" style="fill:rgb(222,227,232);fill-rule:nonzero;"/>
            </g>
        </g>
    </g>
</svg>
